<svg xmlns="http://www.w3.org/2000/svg" viewBox="0 0 1000 1000" preserveAspectRatio="xMidYMid slice">
  <defs>
    <polygon id="starA" points="6,0 7.8,4.2 12,4.6 8.8,7.4 9.8,12 6,9.6 2.2,12 3.2,7.4 0,4.6 4.2,4.2" fill="#D4AF37"/>
  </defs>
  <use href="#starA" transform="translate(68 110) scale(1)"/>
  <use href="#starA" transform="translate(155 282) scale(1)"/>
  <use href="#starA" transform="translate(224 640) scale(1)"/>
  <use href="#starA" transform="translate(301 156) scale(1)"/>
  <use href="#starA" transform="translate(366 470) scale(1)"/>
  <use href="#starA" transform="translate(438 786) scale(1)"/>
  <use href="#starA" transform="translate(512 248) scale(1)"/>
  <use href="#starA" transform="translate(586 602) scale(1)"/>
  <use href="#starA" transform="translate(662 92) scale(1)"/>
  <use href="#starA" transform="translate(738 410) scale(1)"/>
  <use href="#starA" transform="translate(812 748) scale(1)"/>
  <use href="#starA" transform="translate(886 186) scale(1)"/>
  <use href="#starA" transform="translate(940 532) scale(1)"/>
  <use href="#starA" transform="translate(972 860) scale(1)"/>
  <use href="#starA" transform="translate(118 58) scale(1)"/>
  <use href="#starA" transform="translate(196 362) scale(1)"/>
  <use href="#starA" transform="translate(276 904) scale(1)"/>
  <use href="#starA" transform="translate(348 536) scale(1)"/>
  <use href="#starA" transform="translate(422 128) scale(1)"/>
  <use href="#starA" transform="translate(504 894) scale(1)"/>
  <use href="#starA" transform="translate(574 338) scale(1)"/>
  <use href="#starA" transform="translate(648 674) scale(1)"/>
  <use href="#starA" transform="translate(716 262) scale(1)"/>
  <use href="#starA" transform="translate(792 938) scale(1)"/>
  <use href="#starA" transform="translate(856 478) scale(1)"/>
  <use href="#starA" transform="translate(928 34) scale(1)"/>
</svg>
